<?xml version="1.0" encoding="UTF-8"?>
<svg width="24px" height="24px" viewBox="0 0 24 24" version="1.1" xmlns="http://www.w3.org/2000/svg" xmlns:xlink="http://www.w3.org/1999/xlink">
    <!-- Generator: Sketch 44.1 (41455) - http://www.bohemiancoding.com/sketch -->
    <title>icon-phone</title>
    <desc>Created with Sketch.</desc>
    <defs></defs>
      <g transform="translate(-359.000000, -141.000000)" fill-rule="evenodd">
          <path d="M383.000063,143.861056 C383.000063,143.8055 382.972285,143.722166 382.944507,143.666611 C382.916729,143.555499 382.805618,143.444388 382.694507,143.388832 L376.750047,141.027715 C376.500046,140.944381 376.222267,141.055493 376.111156,141.277716 L372.83337,147.833288 C372.722258,148.027733 372.777814,148.249956 372.916703,148.416623 L376.111156,151.611076 C374.472263,154.249972 372.250035,156.499978 369.611139,158.138871 L366.416686,154.91664 C366.250019,154.777751 366.027796,154.722195 365.833351,154.833307 L359.277779,158.111093 C359.055556,158.222204 358.944444,158.499983 359.027778,158.749984 L361.388895,164.694444 C361.444451,164.805555 361.527784,164.916666 361.666674,164.972222 C361.722229,165 361.805563,165 361.861119,165 C361.916674,165 361.97223,165 362.055564,164.972222 C372.944481,163.611107 381.61117,154.972196 382.972285,144.055501 C383.000063,143.972167 383.000063,143.916611 383.000063,143.861056 Z"></path>
      </g>
</svg>
