<?xml version="1.0" encoding="UTF-8"?>
<svg width="24px" height="24px" viewBox="0 0 24 24" version="1.1" xmlns="http://www.w3.org/2000/svg" xmlns:xlink="http://www.w3.org/1999/xlink">
    <!-- Generator: Sketch 44.1 (41455) - http://www.bohemiancoding.com/sketch -->
    <title>icon-facebook</title>
    <desc>Created with Sketch.</desc>
    <defs></defs>
      <g transform="translate(-945.000000, -144.000000)" fill-rule="nonzero">
          <path d="M957,144 C950.372572,144 945,149.372572 945,156 C945,162.627428 950.372572,168 957,168 C957.085865,168 957.171345,167.998554 957.256776,167.99677 L957.256776,160.085222 L954.599151,160.085222 L954.599151,156.763192 L957.256776,156.763192 L957.256776,154.769974 C957.256776,152.033282 958.801528,150.119131 961.24326,150.119131 C962.412636,150.119131 963.236479,150.119131 963.900885,150.119131 L963.900885,153.441162 L962.572073,153.441162 C961.244562,153.441162 960.578854,154.105568 960.578854,155.43438 L960.578854,156.763192 L963.900885,156.763192 L963.236479,160.085222 L960.578854,160.085222 L960.578854,167.457184 C965.458269,165.934561 969,161.380961 969,156 C969,149.372572 963.627428,144 957,144 Z"></path>
      </g>
</svg>
