<?xml version="1.0" encoding="UTF-8"?>
<svg width="24px" height="24px" viewBox="0 0 24 24" version="1.1" xmlns="http://www.w3.org/2000/svg" xmlns:xlink="http://www.w3.org/1999/xlink">
    <!-- Generator: Sketch 44.1 (41455) - http://www.bohemiancoding.com/sketch -->
    <title>icon-mail</title>
    <desc>Created with Sketch.</desc>
    <defs></defs>
      <g transform="translate(-1214.000000, -141.000000)" fill-rule="evenodd">
          <path d="M1237.99474,141.555241 C1238.02251,141.388649 1237.93919,141.194292 1237.77256,141.083231 C1237.60593,140.97217 1237.41153,140.97217 1237.2449,141.055466 L1214.24995,154.049624 C1214.08332,154.160685 1214,154.327277 1214,154.521634 C1214,154.688226 1214.11109,154.854818 1214.27772,154.938113 L1219.27662,157.43699 C1219.33216,157.464755 1219.41548,157.492521 1219.49879,157.492521 C1219.60988,157.492521 1219.72097,157.464755 1219.83205,157.381459 L1234.02339,145.136964 L1223.10911,159.186204 C1223.0258,159.269499 1222.99803,159.380561 1222.99803,159.491622 L1222.99803,164.489375 C1222.99803,164.711497 1223.13688,164.905854 1223.33129,164.961385 C1223.38683,164.98915 1223.44237,164.98915 1223.49792,164.98915 C1223.66455,164.98915 1223.80341,164.905854 1223.88672,164.794793 L1226.63612,161.129774 L1234.27333,164.93362 C1234.41219,165.016915 1234.57882,165.016915 1234.71768,164.93362 C1234.88431,164.850324 1234.96762,164.711497 1234.9954,164.544905 L1237.99474,141.555241 Z"></path>
      </g>
</svg>
